<?xml version="1.0" encoding="utf-8"?>
<!-- Generator: Adobe Adobe Illustrator 24.2.0, SVG Export Plug-In . SVG Version: 6.00 Build 0)  -->
<svg version="1.1" id="Layer_group_1_" xmlns="http://www.w3.org/2000/svg" xmlns:xlink="http://www.w3.org/1999/xlink" x="0px"
	 y="0px" width="1000px" height="1000px" viewBox="0 0 1000 1000" style="enable-background:new 0 0 1000 1000;"
	 xml:space="preserve">
<g id="Vector_layer_1_">
	<path d="M217.68,718l0.45,0.21l-0.01-0.01l-0.03-0.04l-0.04-0.1l-0.03-0.19l0.01-0.29l0.04-0.28l-0.22,0.19l-0.24,0.17l-0.18,0.08
		l-0.11,0.02l-0.05,0l-0.01,0L217.68,718z M278.53,857.86l-2.94,12.27l-20.98,36.43l-3.83,7.79l-2.07,2.44l-1.13,1.97l-22.47,25.9
		l-12.71,15.01l-39.3,45.88l-0.05,0.04l-0.26,0.23l-28.51,24.53l-17.41,1.28l-3.45,1.39l-7.17-0.61l-14.3,1.05l-9.99-3.1l-6.66-0.56
		l-21.47-8.18l-8.58-2.67l-1.67-1.24l-1.94-0.74l-6.87-5.8l-18.45-13.69l-4.06-5.31l-8-6.75l-6.82-12.61l-4.38-5.72l-0.69-3.65
		l-8.3-15.35l5.31-37.23l0.05-0.35l0.01-0.06l17.48-57.82l5.8-18.79l9.72-32.88l1.05-2.02l0.94-3.06l4.5-7.42l19.39-37.3l8.75-9.08
		l3.73-6.14l5.93-3.88l11.29-11.72l31.47-19.51l5.11-0.07l1.89-1.23l6.82,1.11l19.89-0.28l36.65,4.39l16.21,7.72l10.83,1.76
		l1.75,0.2l0.01-0.08l0.02-0.48l-0.01-0.47l0.93,1.14l1.46,0.17l-0.39,0.25l-0.39,0.28l-0.06,0.05l1.11,1.37l7.31,8.17l15.24,9.5
		l23.44,28.51l10.47,16.91l4.61,5.15l-0.02,2.25l2.69,4.34l0.52,37.02l-3.79,15.83l-0.07,7.09L278.53,857.86z"/>
</g>
</svg>
