<?xml version="1.0" encoding="utf-8"?>
<!-- Generator: Adobe Adobe Illustrator 24.2.0, SVG Export Plug-In . SVG Version: 6.00 Build 0)  -->
<svg version="1.1" id="Vector_layer_1_" xmlns="http://www.w3.org/2000/svg" xmlns:xlink="http://www.w3.org/1999/xlink" x="0px"
	 y="0px" width="8000px" height="8000px" viewBox="0 0 8000 8000" style="enable-background:new 0 0 8000 8000;"
	 xml:space="preserve">
<path d="M4000,1256.12l7.68-0.43l-0.15-0.05l-0.73-0.32l-1.35-1.02l-1.86-2.37l-2.05-4.05l-1.54-4.2l-1.54,4.2l-2.05,4.05
	l-1.86,2.37l-1.35,1.02l-0.73,0.32l-0.15,0.05L4000,1256.12z M5869.27,2705.33l51.41,188.75l-14.12,651.73l5.97,134.52l-9.94,48.57
	l-0.76,35.25l-112.72,519.57L5728,4582.5l-192.83,916.66l-0.34,0.9l-1.9,5.07l-205.11,545.99l-227.26,147.01l-36.59,44.54
	l-102.09,45.17l-186.64,120.74l-158.99,32.2l-94.81,41.95l-352.92,48.72l-136.62,27.67l-31.9-4.4l-31.9,4.4l-136.62-27.67
	l-352.92-48.72l-94.81-41.95l-158.99-32.2l-186.64-120.74l-102.09-45.17l-36.59-44.54l-227.26-147.01l-205.11-545.99l-1.9-5.07
	l-0.34-0.9L2272,4582.5l-61.12-298.79l-112.72-519.57l-0.76-35.25l-9.94-48.57l5.97-134.52l-14.12-651.73l51.41-188.75l4.94-111.33
	l51.79-96.91l66.33-243.52l282.73-499.67l68.93-39.03l16.46-30.81l100.96-35.69l268.44-152.02l531.14-213.18l278.04-15.75
	l160.36-56.69l25.32-10.27l-0.47-1.14l-3.28-6.75l-3.54-6.29l21.12,8.57l21.12-8.57l-3.54,6.29l-3.28,6.75l-0.47,1.14l25.32,10.27
	l160.36,56.69l278.04,15.75l531.14,213.18l268.44,152.02l100.96,35.69l16.46,30.81l68.93,39.03l282.73,499.67l66.33,243.52
	l51.79,96.91L5869.27,2705.33z"/>
</svg>
